<svg width="28" height="8" viewBox="0 0 28 8" fill="none" xmlns="http://www.w3.org/2000/svg">
<path d="M26.9807 3.09848H10.2132C9.82607 1.60399 8.47806 0.492188 6.86505 0.492188C5.25111 0.492188 3.90303 1.60399 3.51584 3.09848H1.01919C0.541429 3.09848 0.153809 3.4861 0.153809 3.96387C0.153809 4.44163 0.541429 4.82925 1.01919 4.82925H3.51584C3.90303 6.32374 5.25111 7.43555 6.86505 7.43555C8.47806 7.43555 9.82607 6.32374 10.2132 4.82925H26.9807C27.4585 4.82925 27.8461 4.44163 27.8461 3.96387C27.8461 3.4861 27.4585 3.09848 26.9807 3.09848ZM6.86505 5.70478C5.90501 5.70478 5.12414 4.9239 5.12414 3.96387C5.12414 3.00383 5.90501 2.22296 6.86505 2.22296C7.82396 2.22296 8.60483 3.00383 8.60483 3.96387C8.60483 4.9239 7.82396 5.70478 6.86505 5.70478Z" fill="#1D1D1B"/>
</svg>
