<svg width="16" height="19" viewBox="0 0 16 19" fill="none" xmlns="http://www.w3.org/2000/svg">
<path d="M14.1707 6.97636C14.1112 6.90865 14.021 6.85862 13.9115 6.88104L13.7472 6.91466C13.7425 6.83574 13.7313 6.78098 13.6959 6.71974L13.6606 6.6585L14.352 4.85086C14.3778 4.75427 14.3796 4.6512 14.2959 4.57702C14.2364 4.50932 14.1398 4.48343 14.0303 4.50585L13.5551 4.63733C13.5551 4.63733 13.5551 4.63733 13.5374 4.60671L12.6561 3.64586C12.5965 3.57816 12.5 3.55227 12.4146 3.58116L11.195 3.97908L11.076 3.84366L11.3473 3.21754C11.3973 3.12742 11.3685 3.04204 11.3154 2.95018C11.2624 2.85832 11.1593 2.85659 11.0804 2.86133L10.3926 3.01349C10.3749 2.98287 10.3572 2.95225 10.3396 2.92164L9.45822 1.96079C9.39872 1.89308 9.30212 1.8672 9.21674 1.89608L7.90707 2.24397L7.66906 1.97314C7.60955 1.90543 7.51296 1.87955 7.40343 1.90196C7.31804 1.93085 7.24386 2.0145 7.21798 2.11109L7.03981 2.96922L6.77765 2.69192C6.71815 2.62421 6.62155 2.59833 6.53617 2.62721L5.14759 2.97984L4.86775 2.67192C4.80825 2.60421 4.71165 2.57833 4.60212 2.60074C4.51673 2.62963 4.44256 2.71328 4.41667 2.80987L4.15219 4.47309L3.97368 4.26997C3.91418 4.20226 3.79343 4.16991 3.70805 4.19879C3.62266 4.22768 3.54849 4.31133 3.54675 4.41439L3.30304 10.2502C3.31425 10.3049 3.32545 10.3597 3.36081 10.4209L6.26954 14.1509L5.71287 13.717C5.61154 13.6122 5.53909 13.5928 5.46665 13.5734C5.15272 13.4893 4.81592 13.6837 4.7318 13.9976C4.64769 14.3116 4.84214 14.6484 5.15607 14.7325C5.22851 14.7519 5.27681 14.7648 5.35572 14.7601L6.11425 14.7304L4.93653 15.1654C4.85115 15.1943 4.80759 15.2603 4.78818 15.3327L4.3676 16.9024C4.34819 16.9748 4.3706 17.0843 4.43657 17.1279C4.4784 17.165 4.49608 17.1956 4.54437 17.2085C4.56852 17.215 4.61682 17.228 4.64744 17.2103L6.08905 16.9495L7.35203 17.935C7.418 17.9785 7.51459 18.0044 7.57583 17.9691C7.66122 17.9402 7.72892 17.8807 7.74834 17.8082L8.16245 16.2627C8.18186 16.1903 8.17712 16.1114 8.11762 16.0437L7.50017 15.2571L7.65627 15.3507C7.69809 15.3877 7.77054 15.4072 7.84298 15.4266C8.15691 15.5107 8.49371 15.3162 8.57783 15.0023C8.66194 14.6884 8.46749 14.3516 8.15356 14.2675C8.08112 14.248 8.0022 14.2528 7.92329 14.2575L7.35794 14.339L9.89536 13.466C10.0114 13.4194 10.0985 13.2874 10.0519 13.1714L11.4328 12.5579C11.4875 12.5467 11.5246 12.5049 11.5682 12.4389L14.1784 7.23725C14.2284 7.14713 14.2302 7.04407 14.1707 6.97636ZM11.4841 7.34353L12.0996 5.7226L13.1948 6.94781L13.1754 7.02026L11.4841 7.34353ZM5.6221 6.13516L5.73383 5.62158L7.90657 8.04138L7.36538 8.12931L5.6221 6.13516ZM5.84395 3.76171L6.25794 3.66558L6.4606 3.87518L6.04661 3.9713L5.84395 3.76171ZM7.69389 4.10211L7.42086 4.83129C7.37256 4.81835 7.32426 4.80541 7.2695 4.81661L6.87966 4.91921L6.42131 4.40817L7.69389 4.10211ZM7.23021 5.34961L7.87354 6.03962L7.648 6.1086L7.27331 5.67174L6.62731 5.86099L6.3893 5.59016L7.23021 5.34961ZM9.86675 5.07255L10.1712 4.99884L10.7904 5.68239L10.5649 5.75137L10.1725 5.28388L9.49113 5.4119L9.30615 5.23292L9.86675 5.07255ZM9.70499 5.67626L10.0948 5.57366L10.3087 5.83802L9.89471 5.93415L9.70499 5.67626ZM11.4583 5.99077L11.0076 7.18998L10.2759 6.34686L11.4583 5.99077ZM12.1889 5.09949L11.9927 4.86575L12.3455 4.80498L12.524 5.0081L12.1889 5.09949ZM11.7779 5.3776L11.3269 5.51555C11.3269 5.51555 11.3268 5.51555 11.3092 5.48493L10.8862 5.03512L10.9561 4.48445L11.7779 5.3776ZM8.08601 7.4683L7.40733 6.71704L8.08394 6.51011C8.10809 6.51658 8.13871 6.4989 8.13871 6.4989L8.51087 6.36569L8.08601 7.4683ZM6.80582 6.06411L7.19566 5.96151L7.39185 6.19526L7.02616 6.30433L6.80582 6.06411ZM8.46071 7.90516L9.17154 6.02507C9.19742 5.92848 9.19915 5.82542 9.1155 5.75124C9.03185 5.67706 8.9594 5.65765 8.84987 5.68007L8.56956 5.76025L8.66362 5.21605L10.6031 7.44393L8.46071 7.90516ZM13.2488 6.26346L12.5701 5.51221L13.6736 5.16085L13.2488 6.26346ZM12.3865 4.16892L13.0057 4.85247L12.7801 4.92144L12.4231 4.5152L11.8142 4.66262L11.5762 4.39179L12.3865 4.16892ZM10.2346 4.47232C10.2105 4.46585 10.2105 4.46585 10.1799 4.48353L9.87542 4.55724L9.17906 3.77537L10.6336 3.4663L10.2346 4.47232ZM8.82851 3.34497L8.69182 3.17894L8.96566 3.1229L9.12649 3.29541L8.82851 3.34497ZM9.14683 2.44675L9.79016 3.13677L9.40032 3.23937L9.06098 2.86374L8.50684 2.99996L8.24468 2.72266L9.14683 2.44675ZM7.59568 2.72994L9.36958 4.7064L8.94912 4.82668L8.71111 4.55585C8.65161 4.48814 8.55501 4.46226 8.44548 4.48467C8.3601 4.51356 8.28592 4.59721 8.26651 4.66965L8.10601 5.5584L7.78435 5.21339L8.31099 3.82747C8.33688 3.73088 8.33214 3.65196 8.27264 3.58425C8.21313 3.51655 8.11654 3.49066 8.03116 3.51955L7.67194 3.60447L7.48696 3.4255L7.59568 2.72994ZM6.5275 3.14253L7.09365 3.73422L6.73443 3.81914L6.35973 3.38228L5.66544 3.55859L5.52876 3.39255L6.5275 3.14253ZM4.83146 3.38689L6.31905 5.07958L5.98398 5.17097L5.76364 4.93076C5.70414 4.86305 5.60755 4.83717 5.49801 4.85958C5.38848 4.882 5.33845 4.97212 5.31904 5.04457L5.20557 5.66121L4.59286 4.95351L4.83146 3.38689ZM5.32383 14.4927C5.29969 14.4863 5.24492 14.4975 5.22077 14.491C5.02759 14.4392 4.92152 14.2555 4.97328 14.0624C5.02505 13.8692 5.20876 13.7631 5.40194 13.8149C5.45024 13.8278 5.49854 13.8407 5.54036 13.8778L6.26434 14.4601L5.32383 14.4927ZM7.33828 17.3101L6.2909 16.486C6.27323 16.4553 6.22493 16.4424 6.20078 16.4359C6.17663 16.4295 6.12834 16.4165 6.09772 16.4342L4.92994 16.6389L5.21464 15.5764L6.05082 15.2569L5.64757 15.7959C5.60401 15.8619 5.61522 15.9167 5.68119 15.9602C5.70534 15.9667 5.70534 15.9667 5.72949 15.9732C5.77779 15.9861 5.83255 15.9749 5.86964 15.9331L6.48421 15.0884L6.51483 15.0707L6.61824 16.1337C6.62944 16.1884 6.67127 16.2255 6.71956 16.2385C6.74371 16.2449 6.74371 16.2449 6.76786 16.2514C6.84678 16.2467 6.89033 16.1807 6.87913 16.1259L6.77399 15.166L7.64713 16.2541L7.36243 17.3166L7.33828 17.3101ZM7.90688 14.5119C8.1501 14.4736 8.37043 14.7138 8.30573 14.9553C8.24749 15.1726 7.96072 15.2769 7.7628 15.1463L6.99526 14.63L7.90688 14.5119ZM6.79953 14.0082L3.79594 10.1493L4.02752 5.03497L8.81668 10.537L9.53186 13.0839L6.79953 14.0082ZM11.1611 12.1228L9.9269 12.6721L9.28069 10.3507C9.26302 10.3201 9.24534 10.2895 9.22766 10.2589L7.76422 8.57264L13.5195 7.4748L11.1611 12.1228Z" fill="#FF4768"/>
</svg>
