<svg width="28" height="8" viewBox="0 0 28 8" fill="none" xmlns="http://www.w3.org/2000/svg">
<path d="M26.9807 3.15512H25.1275C24.7403 1.66063 23.3922 0.548828 21.7783 0.548828C20.1643 0.548828 18.8163 1.66063 18.4291 3.15512H1.01919C0.541429 3.15512 0.153809 3.54274 0.153809 4.02051C0.153809 4.49827 0.541429 4.88589 1.01919 4.88589H18.4291C18.8163 6.38038 20.1643 7.49219 21.7783 7.49219C23.3922 7.49219 24.7403 6.38038 25.1275 4.88589H26.9807C27.4585 4.88589 27.8461 4.49827 27.8461 4.02051C27.8461 3.54274 27.4585 3.15512 26.9807 3.15512ZM21.7783 5.76142C20.8182 5.76142 20.0374 4.98054 20.0374 4.02051C20.0374 3.06047 20.8182 2.2796 21.7783 2.2796C22.7383 2.2796 23.5192 3.06047 23.5192 4.02051C23.5192 4.98054 22.7383 5.76142 21.7783 5.76142Z" fill="#1D1D1B"/>
</svg>
