<svg width="28" height="8" viewBox="0 0 28 8" fill="none" xmlns="http://www.w3.org/2000/svg">
<path d="M1.01919 4.94253H8.7273C9.1145 6.43703 10.4626 7.54883 12.0765 7.54883C13.6904 7.54883 15.0385 6.43703 15.4257 4.94253H26.9807C27.4585 4.94253 27.8461 4.55491 27.8461 4.07715C27.8461 3.59939 27.4585 3.21176 26.9807 3.21176H15.4257C15.0385 1.71727 13.6904 0.605469 12.0765 0.605469C10.4626 0.605469 9.1145 1.71727 8.7273 3.21176H1.01919C0.541429 3.21176 0.153809 3.59939 0.153809 4.07715C0.153809 4.55491 0.541429 4.94253 1.01919 4.94253ZM12.0765 2.33624C13.0365 2.33624 13.8174 3.11711 13.8174 4.07715C13.8174 5.03719 13.0365 5.81806 12.0765 5.81806C11.1165 5.81806 10.3356 5.03719 10.3356 4.07715C10.3356 3.11711 11.1165 2.33624 12.0765 2.33624Z" fill="#1D1D1B"/>
</svg>
