<svg width="38" height="32" viewBox="0 0 38 32" fill="none" xmlns="http://www.w3.org/2000/svg">
<path d="M33.1206 9.98487H22.7536C22.367 9.98487 22.0536 10.2983 22.0536 10.6849C22.0536 11.0715 22.367 11.3849 22.7536 11.3849H33.1206C34.6352 11.3849 35.8676 12.5867 35.8676 14.0639V29.1535L32.555 25.9057C32.4242 25.7773 32.2482 25.7055 32.065 25.7055H20.6758C19.1612 25.7055 17.929 24.5037 17.929 23.0265V17.5603C17.9724 17.5541 18.0144 17.5435 18.0572 17.5359C18.1128 17.5261 18.1684 17.5163 18.2232 17.5043C18.2988 17.4877 18.3728 17.4681 18.4466 17.4477C18.4984 17.4333 18.5506 17.4197 18.6016 17.4035C18.678 17.3791 18.7522 17.3509 18.8266 17.3223C18.8726 17.3045 18.9194 17.2885 18.9646 17.2693C19.0472 17.2341 19.1272 17.1945 19.207 17.1543C19.2414 17.1371 19.2768 17.1219 19.3106 17.1037C19.4232 17.0429 19.5328 16.9777 19.6388 16.9073C19.6466 16.9021 19.6536 16.8961 19.6614 16.8909C19.7588 16.8251 19.8534 16.7559 19.9446 16.6823C19.977 16.6563 20.007 16.6275 20.0386 16.6005C20.103 16.5453 20.167 16.4901 20.2278 16.4311C20.263 16.3969 20.296 16.3607 20.3298 16.3255C20.3834 16.2699 20.4364 16.2141 20.4866 16.1557C20.5206 16.1163 20.5524 16.0753 20.5848 16.0347C20.6312 15.9765 20.6766 15.9179 20.7196 15.8573C20.7506 15.8139 20.7798 15.7693 20.8092 15.7247C20.8492 15.6635 20.8878 15.6013 20.9246 15.5379C20.9518 15.4911 20.9778 15.4439 21.0032 15.3959C21.0374 15.3311 21.0692 15.2653 21.1 15.1985C21.1226 15.1493 21.145 15.1001 21.1656 15.0497C21.194 14.9807 21.2192 14.9105 21.2438 14.8399C21.2614 14.7895 21.2794 14.7395 21.295 14.6881C21.3176 14.6133 21.3362 14.5371 21.3546 14.4607C21.3664 14.4113 21.3798 14.3625 21.3898 14.3123C21.4068 14.2271 21.4186 14.1401 21.43 14.0531C21.4358 14.0099 21.444 13.9675 21.4482 13.9239C21.4612 13.7925 21.4688 13.6597 21.4688 13.5249V4.55947C21.4688 2.31027 19.6096 0.480469 17.3244 0.480469H4.87702C2.59162 0.480469 0.732422 2.31027 0.732422 4.55947V21.3181C0.732422 21.6001 0.901622 21.8545 1.16162 21.9635C1.24922 22.0003 1.34102 22.0181 1.43242 22.0181C1.61222 22.0181 1.78922 21.9487 1.92282 21.8179L6.21862 17.6037H16.5288V23.0267C16.5288 25.2759 18.3892 27.1057 20.6756 27.1057H31.779L36.0776 31.3201C36.211 31.4509 36.388 31.5203 36.5678 31.5203C36.659 31.5203 36.7512 31.5025 36.8386 31.4657C37.0984 31.3565 37.2676 31.1021 37.2676 30.8203V14.0639C37.2676 11.8147 35.4072 9.98487 33.1206 9.98487ZM17.3244 16.2037H17.2286H5.93262C5.74922 16.2037 5.57322 16.2755 5.44242 16.4039L2.13242 19.6509V4.55947C2.13242 3.08227 3.36362 1.88047 4.87702 1.88047H17.3244C18.8376 1.88047 20.0688 3.08227 20.0688 4.55947V13.5247C20.0688 15.0019 18.8376 16.2037 17.3244 16.2037Z" fill="#1D1D1B"/>
</svg>
